<?xml version="1.0" encoding="UTF-8" standalone="no"?>
<!DOCTYPE svg PUBLIC "-//W3C//DTD SVG 1.1//EN"
 "http://www.w3.org/Graphics/SVG/1.1/DTD/svg11.dtd">
<!-- Generated by graphviz version 14.1.0 (20251206.1807)
 -->
<!-- Title: FunctionCalls Pages: 1 -->
<svg width="785pt" height="638pt"
 viewBox="0.00 0.00 785.00 638.00" xmlns="http://www.w3.org/2000/svg" xmlns:xlink="http://www.w3.org/1999/xlink">
<g id="graph0" class="graph" transform="scale(1 1) rotate(0) translate(4 634)">
<title>FunctionCalls</title>
<polygon fill="white" stroke="none" points="-4,4 -4,-634 780.5,-634 780.5,4 -4,4"/>
<!-- openExtendedPlanNavigation -->
<g id="node1" class="node">
<title>openExtendedPlanNavigation</title>
<path fill="none" stroke="black" d="M165.25,-90C165.25,-90 12,-90 12,-90 6,-90 0,-84 0,-78 0,-78 0,-66 0,-66 0,-60 6,-54 12,-54 12,-54 165.25,-54 165.25,-54 171.25,-54 177.25,-60 177.25,-66 177.25,-66 177.25,-78 177.25,-78 177.25,-84 171.25,-90 165.25,-90"/>
<text xml:space="preserve" text-anchor="middle" x="88.62" y="-66.95" font-family="Times New Roman,serif" font-size="14.00">openExtendedPlanNavigation</text>
</g>
<!-- openColumn -->
<g id="node2" class="node">
<title>openColumn</title>
<path fill="none" stroke="black" d="M334.25,-63C334.25,-63 271.75,-63 271.75,-63 265.75,-63 259.75,-57 259.75,-51 259.75,-51 259.75,-39 259.75,-39 259.75,-33 265.75,-27 271.75,-27 271.75,-27 334.25,-27 334.25,-27 340.25,-27 346.25,-33 346.25,-39 346.25,-39 346.25,-51 346.25,-51 346.25,-57 340.25,-63 334.25,-63"/>
<text xml:space="preserve" text-anchor="middle" x="303" y="-39.95" font-family="Times New Roman,serif" font-size="14.00">openColumn</text>
</g>
<!-- openExtendedPlanNavigation&#45;&gt;openColumn -->
<g id="edge1" class="edge">
<title>openExtendedPlanNavigation&#45;&gt;openColumn</title>
<path fill="none" stroke="black" d="M177.54,-60.82C201.53,-57.77 226.8,-54.56 248.26,-51.83"/>
<polygon fill="black" stroke="black" points="248.45,-55.34 257.92,-50.6 247.56,-48.39 248.45,-55.34"/>
</g>
<!-- openRecycledNavigation -->
<g id="node3" class="node">
<title>openRecycledNavigation</title>
<path fill="none" stroke="black" d="M152.88,-36C152.88,-36 24.38,-36 24.38,-36 18.38,-36 12.38,-30 12.38,-24 12.38,-24 12.38,-12 12.38,-12 12.38,-6 18.38,0 24.38,0 24.38,0 152.88,0 152.88,0 158.88,0 164.88,-6 164.88,-12 164.88,-12 164.88,-24 164.88,-24 164.88,-30 158.88,-36 152.88,-36"/>
<text xml:space="preserve" text-anchor="middle" x="88.62" y="-12.95" font-family="Times New Roman,serif" font-size="14.00">openRecycledNavigation</text>
</g>
<!-- openRecycledNavigation&#45;&gt;openColumn -->
<g id="edge2" class="edge">
<title>openRecycledNavigation&#45;&gt;openColumn</title>
<path fill="none" stroke="black" d="M165.1,-27.6C192.6,-31.09 223.11,-34.97 248.33,-38.18"/>
<polygon fill="black" stroke="black" points="247.66,-41.62 258.02,-39.41 248.54,-34.68 247.66,-41.62"/>
</g>
<!-- totalStoryDuration -->
<g id="node4" class="node">
<title>totalStoryDuration</title>
<path fill="none" stroke="black" d="M554.25,-281C554.25,-281 461,-281 461,-281 455,-281 449,-275 449,-269 449,-269 449,-257 449,-257 449,-251 455,-245 461,-245 461,-245 554.25,-245 554.25,-245 560.25,-245 566.25,-251 566.25,-257 566.25,-257 566.25,-269 566.25,-269 566.25,-275 560.25,-281 554.25,-281"/>
<text xml:space="preserve" text-anchor="middle" x="507.62" y="-257.95" font-family="Times New Roman,serif" font-size="14.00">totalStoryDuration</text>
</g>
<!-- stringDurationToSeconds -->
<g id="node5" class="node">
<title>stringDurationToSeconds</title>
<path fill="none" stroke="black" d="M764.5,-306C764.5,-306 634.5,-306 634.5,-306 628.5,-306 622.5,-300 622.5,-294 622.5,-294 622.5,-282 622.5,-282 622.5,-276 628.5,-270 634.5,-270 634.5,-270 764.5,-270 764.5,-270 770.5,-270 776.5,-276 776.5,-282 776.5,-282 776.5,-294 776.5,-294 776.5,-300 770.5,-306 764.5,-306"/>
<text xml:space="preserve" text-anchor="middle" x="699.5" y="-282.95" font-family="Times New Roman,serif" font-size="14.00">stringDurationToSeconds</text>
</g>
<!-- totalStoryDuration&#45;&gt;stringDurationToSeconds -->
<g id="edge3" class="edge">
<title>totalStoryDuration&#45;&gt;stringDurationToSeconds</title>
<path fill="none" stroke="black" d="M566.63,-270.64C580.62,-272.48 595.88,-274.49 610.89,-276.47"/>
<polygon fill="black" stroke="black" points="610.43,-279.93 620.8,-277.77 611.34,-272.99 610.43,-279.93"/>
</g>
<!-- totalPlanDuration -->
<g id="node6" class="node">
<title>totalPlanDuration</title>
<path fill="none" stroke="black" d="M347,-171C347,-171 259,-171 259,-171 253,-171 247,-165 247,-159 247,-159 247,-147 247,-147 247,-141 253,-135 259,-135 259,-135 347,-135 347,-135 353,-135 359,-141 359,-147 359,-147 359,-159 359,-159 359,-165 353,-171 347,-171"/>
<text xml:space="preserve" text-anchor="middle" x="303" y="-147.95" font-family="Times New Roman,serif" font-size="14.00">totalPlanDuration</text>
</g>
<!-- stringToDateTime -->
<g id="node7" class="node">
<title>stringToDateTime</title>
<path fill="none" stroke="black" d="M553.5,-225C553.5,-225 461.75,-225 461.75,-225 455.75,-225 449.75,-219 449.75,-213 449.75,-213 449.75,-201 449.75,-201 449.75,-195 455.75,-189 461.75,-189 461.75,-189 553.5,-189 553.5,-189 559.5,-189 565.5,-195 565.5,-201 565.5,-201 565.5,-213 565.5,-213 565.5,-219 559.5,-225 553.5,-225"/>
<text xml:space="preserve" text-anchor="middle" x="507.62" y="-201.95" font-family="Times New Roman,serif" font-size="14.00">stringToDateTime</text>
</g>
<!-- totalPlanDuration&#45;&gt;stringToDateTime -->
<g id="edge4" class="edge">
<title>totalPlanDuration&#45;&gt;stringToDateTime</title>
<path fill="none" stroke="black" d="M359.37,-167.76C383.87,-174.29 412.93,-182.03 438.72,-188.9"/>
<polygon fill="black" stroke="black" points="437.53,-192.21 448.1,-191.4 439.34,-185.44 437.53,-192.21"/>
</g>
<!-- formatSecondsHHMMSS -->
<g id="node8" class="node">
<title>formatSecondsHHMMSS</title>
<path fill="none" stroke="black" d="M574.5,-117C574.5,-117 440.75,-117 440.75,-117 434.75,-117 428.75,-111 428.75,-105 428.75,-105 428.75,-93 428.75,-93 428.75,-87 434.75,-81 440.75,-81 440.75,-81 574.5,-81 574.5,-81 580.5,-81 586.5,-87 586.5,-93 586.5,-93 586.5,-105 586.5,-105 586.5,-111 580.5,-117 574.5,-117"/>
<text xml:space="preserve" text-anchor="middle" x="507.62" y="-93.95" font-family="Times New Roman,serif" font-size="14.00">formatSecondsHHMMSS</text>
</g>
<!-- totalPlanDuration&#45;&gt;formatSecondsHHMMSS -->
<g id="edge5" class="edge">
<title>totalPlanDuration&#45;&gt;formatSecondsHHMMSS</title>
<path fill="none" stroke="black" d="M359.37,-138.24C380.11,-132.72 404.12,-126.32 426.65,-120.31"/>
<polygon fill="black" stroke="black" points="427.34,-123.75 436.1,-117.79 425.54,-116.99 427.34,-123.75"/>
</g>
<!-- formatSeconds -->
<g id="node9" class="node">
<title>formatSeconds</title>
<path fill="none" stroke="black" d="M544.5,-171C544.5,-171 470.75,-171 470.75,-171 464.75,-171 458.75,-165 458.75,-159 458.75,-159 458.75,-147 458.75,-147 458.75,-141 464.75,-135 470.75,-135 470.75,-135 544.5,-135 544.5,-135 550.5,-135 556.5,-141 556.5,-147 556.5,-147 556.5,-159 556.5,-159 556.5,-165 550.5,-171 544.5,-171"/>
<text xml:space="preserve" text-anchor="middle" x="507.62" y="-147.95" font-family="Times New Roman,serif" font-size="14.00">formatSeconds</text>
</g>
<!-- totalPlanDuration&#45;&gt;formatSeconds -->
<g id="edge6" class="edge">
<title>totalPlanDuration&#45;&gt;formatSeconds</title>
<path fill="none" stroke="black" d="M359.37,-153C386.66,-153 419.59,-153 447.39,-153"/>
<polygon fill="black" stroke="black" points="447.04,-156.5 457.04,-153 447.04,-149.5 447.04,-156.5"/>
</g>
<!-- broadcastTimeLeft -->
<g id="node10" class="node">
<title>broadcastTimeLeft</title>
<path fill="none" stroke="black" d="M350.75,-279C350.75,-279 255.25,-279 255.25,-279 249.25,-279 243.25,-273 243.25,-267 243.25,-267 243.25,-255 243.25,-255 243.25,-249 249.25,-243 255.25,-243 255.25,-243 350.75,-243 350.75,-243 356.75,-243 362.75,-249 362.75,-255 362.75,-255 362.75,-267 362.75,-267 362.75,-273 356.75,-279 350.75,-279"/>
<text xml:space="preserve" text-anchor="middle" x="303" y="-255.95" font-family="Times New Roman,serif" font-size="14.00">broadcastTimeLeft</text>
</g>
<!-- broadcastTimeLeft&#45;&gt;totalStoryDuration -->
<g id="edge8" class="edge">
<title>broadcastTimeLeft&#45;&gt;totalStoryDuration</title>
<path fill="none" stroke="black" d="M363.15,-261.58C386.45,-261.81 413.36,-262.08 437.54,-262.32"/>
<polygon fill="black" stroke="black" points="437.25,-265.82 447.28,-262.41 437.32,-258.82 437.25,-265.82"/>
</g>
<!-- broadcastTimeLeft&#45;&gt;stringToDateTime -->
<g id="edge7" class="edge">
<title>broadcastTimeLeft&#45;&gt;stringToDateTime</title>
<path fill="none" stroke="black" d="M363.15,-245.24C386.75,-238.95 414.07,-231.67 438.5,-225.16"/>
<polygon fill="black" stroke="black" points="439.27,-228.57 448.03,-222.62 437.47,-221.81 439.27,-228.57"/>
</g>
<!-- broadcastTimeLeftForBlock -->
<g id="node11" class="node">
<title>broadcastTimeLeftForBlock</title>
<path fill="none" stroke="black" d="M161.88,-279C161.88,-279 15.38,-279 15.38,-279 9.38,-279 3.38,-273 3.38,-267 3.38,-267 3.38,-255 3.38,-255 3.38,-249 9.38,-243 15.38,-243 15.38,-243 161.88,-243 161.88,-243 167.88,-243 173.88,-249 173.88,-255 173.88,-255 173.88,-267 173.88,-267 173.88,-273 167.88,-279 161.88,-279"/>
<text xml:space="preserve" text-anchor="middle" x="88.62" y="-255.95" font-family="Times New Roman,serif" font-size="14.00">broadcastTimeLeftForBlock</text>
</g>
<!-- broadcastTimeLeftForBlock&#45;&gt;broadcastTimeLeft -->
<g id="edge9" class="edge">
<title>broadcastTimeLeftForBlock&#45;&gt;broadcastTimeLeft</title>
<path fill="none" stroke="black" d="M174.17,-261C193.14,-261 213.08,-261 231.41,-261"/>
<polygon fill="black" stroke="black" points="231.39,-264.5 241.39,-261 231.39,-257.5 231.39,-264.5"/>
</g>
<!-- formattedTimeLeft -->
<g id="node12" class="node">
<title>formattedTimeLeft</title>
<path fill="none" stroke="black" d="M351.5,-117C351.5,-117 254.5,-117 254.5,-117 248.5,-117 242.5,-111 242.5,-105 242.5,-105 242.5,-93 242.5,-93 242.5,-87 248.5,-81 254.5,-81 254.5,-81 351.5,-81 351.5,-81 357.5,-81 363.5,-87 363.5,-93 363.5,-93 363.5,-105 363.5,-105 363.5,-111 357.5,-117 351.5,-117"/>
<text xml:space="preserve" text-anchor="middle" x="303" y="-93.95" font-family="Times New Roman,serif" font-size="14.00">formattedTimeLeft</text>
</g>
<!-- formattedTimeLeft&#45;&gt;formatSecondsHHMMSS -->
<g id="edge10" class="edge">
<title>formattedTimeLeft&#45;&gt;formatSecondsHHMMSS</title>
<path fill="none" stroke="black" d="M363.97,-99C380.61,-99 399.05,-99 416.99,-99"/>
<polygon fill="black" stroke="black" points="416.86,-102.5 426.86,-99 416.86,-95.5 416.86,-102.5"/>
</g>
<!-- formattedTimeLeft&#45;&gt;formatSeconds -->
<g id="edge11" class="edge">
<title>formattedTimeLeft&#45;&gt;formatSeconds</title>
<path fill="none" stroke="black" d="M363.97,-114.98C390.32,-122 421.16,-130.22 447.42,-137.22"/>
<polygon fill="black" stroke="black" points="446.34,-140.56 456.9,-139.75 448.14,-133.79 446.34,-140.56"/>
</g>
<!-- getHandoverStartTime -->
<g id="node13" class="node">
<title>getHandoverStartTime</title>
<path fill="none" stroke="black" d="M361.25,-333C361.25,-333 244.75,-333 244.75,-333 238.75,-333 232.75,-327 232.75,-321 232.75,-321 232.75,-309 232.75,-309 232.75,-303 238.75,-297 244.75,-297 244.75,-297 361.25,-297 361.25,-297 367.25,-297 373.25,-303 373.25,-309 373.25,-309 373.25,-321 373.25,-321 373.25,-327 367.25,-333 361.25,-333"/>
<text xml:space="preserve" text-anchor="middle" x="303" y="-309.95" font-family="Times New Roman,serif" font-size="14.00">getHandoverStartTime</text>
</g>
<!-- getHandoverStartTime&#45;&gt;stringDurationToSeconds -->
<g id="edge13" class="edge">
<title>getHandoverStartTime&#45;&gt;stringDurationToSeconds</title>
<path fill="none" stroke="black" d="M373.62,-310.24C439.76,-305.71 539.45,-298.89 610.94,-293.99"/>
<polygon fill="black" stroke="black" points="610.92,-297.5 620.66,-293.33 610.44,-290.52 610.92,-297.5"/>
</g>
<!-- getHandoverStartTime&#45;&gt;stringToDateTime -->
<g id="edge12" class="edge">
<title>getHandoverStartTime&#45;&gt;stringToDateTime</title>
<path fill="none" stroke="black" d="M373.56,-298.91C380.36,-295.88 386.9,-292.27 392.75,-288 415.46,-271.43 406.56,-253.25 428.75,-236 432.08,-233.41 435.66,-231.04 439.4,-228.86"/>
<polygon fill="black" stroke="black" points="440.99,-231.98 448.23,-224.25 437.75,-225.77 440.99,-231.98"/>
</g>
<!-- getFormattedPlanHeaderDate -->
<g id="node14" class="node">
<title>getFormattedPlanHeaderDate</title>
<path fill="none" stroke="black" d="M379.62,-225C379.62,-225 226.38,-225 226.38,-225 220.38,-225 214.38,-219 214.38,-213 214.38,-213 214.38,-201 214.38,-201 214.38,-195 220.38,-189 226.38,-189 226.38,-189 379.62,-189 379.62,-189 385.62,-189 391.62,-195 391.62,-201 391.62,-201 391.62,-213 391.62,-213 391.62,-219 385.62,-225 379.62,-225"/>
<text xml:space="preserve" text-anchor="middle" x="303" y="-201.95" font-family="Times New Roman,serif" font-size="14.00">getFormattedPlanHeaderDate</text>
</g>
<!-- getFormattedPlanHeaderDate&#45;&gt;stringToDateTime -->
<g id="edge14" class="edge">
<title>getFormattedPlanHeaderDate&#45;&gt;stringToDateTime</title>
<path fill="none" stroke="black" d="M391.99,-207C407.48,-207 423.39,-207 438.25,-207"/>
<polygon fill="black" stroke="black" points="437.86,-210.5 447.86,-207 437.86,-203.5 437.86,-210.5"/>
</g>
<!-- scrollToPlan -->
<g id="node15" class="node">
<title>scrollToPlan</title>
<path fill="none" stroke="black" d="M118.75,-441C118.75,-441 58.5,-441 58.5,-441 52.5,-441 46.5,-435 46.5,-429 46.5,-429 46.5,-417 46.5,-417 46.5,-411 52.5,-405 58.5,-405 58.5,-405 118.75,-405 118.75,-405 124.75,-405 130.75,-411 130.75,-417 130.75,-417 130.75,-429 130.75,-429 130.75,-435 124.75,-441 118.75,-441"/>
<text xml:space="preserve" text-anchor="middle" x="88.62" y="-417.95" font-family="Times New Roman,serif" font-size="14.00">scrollToPlan</text>
</g>
<!-- findScrollToPlanIndex -->
<g id="node16" class="node">
<title>findScrollToPlanIndex</title>
<path fill="none" stroke="black" d="M360.5,-495C360.5,-495 245.5,-495 245.5,-495 239.5,-495 233.5,-489 233.5,-483 233.5,-483 233.5,-471 233.5,-471 233.5,-465 239.5,-459 245.5,-459 245.5,-459 360.5,-459 360.5,-459 366.5,-459 372.5,-465 372.5,-471 372.5,-471 372.5,-483 372.5,-483 372.5,-489 366.5,-495 360.5,-495"/>
<text xml:space="preserve" text-anchor="middle" x="303" y="-471.95" font-family="Times New Roman,serif" font-size="14.00">findScrollToPlanIndex</text>
</g>
<!-- scrollToPlan&#45;&gt;findScrollToPlanIndex -->
<g id="edge15" class="edge">
<title>scrollToPlan&#45;&gt;findScrollToPlanIndex</title>
<path fill="none" stroke="black" d="M131.08,-433.54C156.99,-440.13 191.23,-448.83 222.25,-456.72"/>
<polygon fill="black" stroke="black" points="221.05,-460.03 231.6,-459.1 222.77,-453.24 221.05,-460.03"/>
</g>
<!-- generateScrollToPlanId -->
<g id="node17" class="node">
<title>generateScrollToPlanId</title>
<path fill="none" stroke="black" d="M362.75,-441C362.75,-441 243.25,-441 243.25,-441 237.25,-441 231.25,-435 231.25,-429 231.25,-429 231.25,-417 231.25,-417 231.25,-411 237.25,-405 243.25,-405 243.25,-405 362.75,-405 362.75,-405 368.75,-405 374.75,-411 374.75,-417 374.75,-417 374.75,-429 374.75,-429 374.75,-435 368.75,-441 362.75,-441"/>
<text xml:space="preserve" text-anchor="middle" x="303" y="-417.95" font-family="Times New Roman,serif" font-size="14.00">generateScrollToPlanId</text>
</g>
<!-- scrollToPlan&#45;&gt;generateScrollToPlanId -->
<g id="edge16" class="edge">
<title>scrollToPlan&#45;&gt;generateScrollToPlanId</title>
<path fill="none" stroke="black" d="M131.08,-423C156.23,-423 189.22,-423 219.5,-423"/>
<polygon fill="black" stroke="black" points="219.44,-426.5 229.44,-423 219.44,-419.5 219.44,-426.5"/>
</g>
<!-- scrollElementIntoView -->
<g id="node18" class="node">
<title>scrollElementIntoView</title>
<path fill="none" stroke="black" d="M362,-387C362,-387 244,-387 244,-387 238,-387 232,-381 232,-375 232,-375 232,-363 232,-363 232,-357 238,-351 244,-351 244,-351 362,-351 362,-351 368,-351 374,-357 374,-363 374,-363 374,-375 374,-375 374,-381 368,-387 362,-387"/>
<text xml:space="preserve" text-anchor="middle" x="303" y="-363.95" font-family="Times New Roman,serif" font-size="14.00">scrollElementIntoView</text>
</g>
<!-- scrollToPlan&#45;&gt;scrollElementIntoView -->
<g id="edge17" class="edge">
<title>scrollToPlan&#45;&gt;scrollElementIntoView</title>
<path fill="none" stroke="black" d="M131.08,-412.46C156.56,-405.98 190.08,-397.46 220.68,-389.68"/>
<polygon fill="black" stroke="black" points="221.51,-393.08 230.33,-387.22 219.78,-386.29 221.51,-393.08"/>
</g>
<!-- printPlanStories -->
<g id="node19" class="node">
<title>printPlanStories</title>
<path fill="none" stroke="black" d="M128.12,-576C128.12,-576 49.12,-576 49.12,-576 43.12,-576 37.12,-570 37.12,-564 37.12,-564 37.12,-552 37.12,-552 37.12,-546 43.12,-540 49.12,-540 49.12,-540 128.12,-540 128.12,-540 134.12,-540 140.12,-546 140.12,-552 140.12,-552 140.12,-564 140.12,-564 140.12,-570 134.12,-576 128.12,-576"/>
<text xml:space="preserve" text-anchor="middle" x="88.62" y="-552.95" font-family="Times New Roman,serif" font-size="14.00">printPlanStories</text>
</g>
<!-- activateStoryPrinter -->
<g id="node20" class="node">
<title>activateStoryPrinter</title>
<path fill="none" stroke="black" d="M353,-549C353,-549 253,-549 253,-549 247,-549 241,-543 241,-537 241,-537 241,-525 241,-525 241,-519 247,-513 253,-513 253,-513 353,-513 353,-513 359,-513 365,-519 365,-525 365,-525 365,-537 365,-537 365,-543 359,-549 353,-549"/>
<text xml:space="preserve" text-anchor="middle" x="303" y="-525.95" font-family="Times New Roman,serif" font-size="14.00">activateStoryPrinter</text>
</g>
<!-- printPlanStories&#45;&gt;activateStoryPrinter -->
<g id="edge18" class="edge">
<title>printPlanStories&#45;&gt;activateStoryPrinter</title>
<path fill="none" stroke="black" d="M140.49,-551.53C167.04,-548.16 199.97,-543.97 229.17,-540.26"/>
<polygon fill="black" stroke="black" points="229.59,-543.73 239.07,-539 228.71,-536.79 229.59,-543.73"/>
</g>
<!-- preventDefaultBrowserPrint -->
<g id="node21" class="node">
<title>preventDefaultBrowserPrint</title>
<path fill="none" stroke="black" d="M161.12,-522C161.12,-522 16.12,-522 16.12,-522 10.12,-522 4.12,-516 4.12,-510 4.12,-510 4.12,-498 4.12,-498 4.12,-492 10.12,-486 16.12,-486 16.12,-486 161.12,-486 161.12,-486 167.12,-486 173.12,-492 173.12,-498 173.12,-498 173.12,-510 173.12,-510 173.12,-516 167.12,-522 161.12,-522"/>
<text xml:space="preserve" text-anchor="middle" x="88.62" y="-498.95" font-family="Times New Roman,serif" font-size="14.00">preventDefaultBrowserPrint</text>
</g>
<!-- preventDefaultBrowserPrint&#45;&gt;activateStoryPrinter -->
<g id="edge19" class="edge">
<title>preventDefaultBrowserPrint&#45;&gt;activateStoryPrinter</title>
<path fill="none" stroke="black" d="M173.56,-514.67C192,-517.02 211.39,-519.48 229.34,-521.76"/>
<polygon fill="black" stroke="black" points="228.75,-525.22 239.11,-523 229.63,-518.27 228.75,-525.22"/>
</g>
<!-- toggleSelection -->
<g id="node22" class="node">
<title>toggleSelection</title>
<path fill="none" stroke="black" d="M126.62,-630C126.62,-630 50.62,-630 50.62,-630 44.62,-630 38.62,-624 38.62,-618 38.62,-618 38.62,-606 38.62,-606 38.62,-600 44.62,-594 50.62,-594 50.62,-594 126.62,-594 126.62,-594 132.62,-594 138.62,-600 138.62,-606 138.62,-606 138.62,-618 138.62,-618 138.62,-624 132.62,-630 126.62,-630"/>
<text xml:space="preserve" text-anchor="middle" x="88.62" y="-606.95" font-family="Times New Roman,serif" font-size="14.00">toggleSelection</text>
</g>
<!-- selectOrDeselectStoriesRange -->
<g id="node23" class="node">
<title>selectOrDeselectStoriesRange</title>
<path fill="none" stroke="black" d="M380.75,-630C380.75,-630 225.25,-630 225.25,-630 219.25,-630 213.25,-624 213.25,-618 213.25,-618 213.25,-606 213.25,-606 213.25,-600 219.25,-594 225.25,-594 225.25,-594 380.75,-594 380.75,-594 386.75,-594 392.75,-600 392.75,-606 392.75,-606 392.75,-618 392.75,-618 392.75,-624 386.75,-630 380.75,-630"/>
<text xml:space="preserve" text-anchor="middle" x="303" y="-606.95" font-family="Times New Roman,serif" font-size="14.00">selectOrDeselectStoriesRange</text>
</g>
<!-- toggleSelection&#45;&gt;selectOrDeselectStoriesRange -->
<g id="edge20" class="edge">
<title>toggleSelection&#45;&gt;selectOrDeselectStoriesRange</title>
<path fill="none" stroke="black" d="M138.88,-612C157.66,-612 179.82,-612 201.65,-612"/>
<polygon fill="black" stroke="black" points="201.5,-615.5 211.5,-612 201.5,-608.5 201.5,-615.5"/>
</g>
<!-- addRange -->
<g id="node24" class="node">
<title>addRange</title>
<path fill="none" stroke="black" d="M530.62,-630C530.62,-630 484.62,-630 484.62,-630 478.62,-630 472.62,-624 472.62,-618 472.62,-618 472.62,-606 472.62,-606 472.62,-600 478.62,-594 484.62,-594 484.62,-594 530.62,-594 530.62,-594 536.62,-594 542.62,-600 542.62,-606 542.62,-606 542.62,-618 542.62,-618 542.62,-624 536.62,-630 530.62,-630"/>
<text xml:space="preserve" text-anchor="middle" x="507.62" y="-606.95" font-family="Times New Roman,serif" font-size="14.00">addRange</text>
</g>
<!-- selectOrDeselectStoriesRange&#45;&gt;addRange -->
<g id="edge21" class="edge">
<title>selectOrDeselectStoriesRange&#45;&gt;addRange</title>
<path fill="none" stroke="black" d="M393.17,-612C416.6,-612 440.91,-612 460.99,-612"/>
<polygon fill="black" stroke="black" points="460.77,-615.5 470.77,-612 460.77,-608.5 460.77,-615.5"/>
</g>
</g>
</svg>
